<svg width="36" height="31" viewBox="0 0 36 31" fill="none" xmlns="http://www.w3.org/2000/svg">
<g clip-path="url(#clip0_81_145)">
<path d="M32.4701 9.51685H3.24037C2.61854 9.51685 2.11615 9.94508 2.11615 10.4751V29.6411C2.11615 30.1711 2.61854 30.5994 3.24037 30.5994H32.4701C33.0919 30.5994 33.5943 30.1711 33.5943 29.6411V10.4751C33.5943 9.94508 33.0919 9.51685 32.4701 9.51685ZM31.0648 12.8349V28.4432H4.64564V12.8349L3.676 12.1911L5.05669 10.6788L6.56033 11.676H29.1536L30.6573 10.6788L32.038 12.1911L31.0648 12.8349ZM29.1536 11.673L17.8552 19.1597L6.55682 11.673L5.05317 10.6758L3.67249 12.1881L4.64213 12.832L16.6432 20.7858C16.9883 21.0144 17.4129 21.1384 17.85 21.1384C18.287 21.1384 18.7116 21.0144 19.0567 20.7858L31.0648 12.8349L32.0344 12.1911L30.6538 10.6788L29.1536 11.673Z" fill="#D90416"/>
</g>
<defs>
<clipPath id="clip0_81_145">
<rect width="35.975" height="30.6655" fill="white"/>
</clipPath>
</defs>
</svg>
