<svg width="42" height="37" viewBox="0 0 42 37" fill="none" xmlns="http://www.w3.org/2000/svg">
<path d="M38.4733 19.317C38.3198 19.3178 38.1677 19.2922 38.0257 19.2416C37.8836 19.191 37.7544 19.1164 37.6455 19.0222L20.9854 4.48358L4.32532 19.0222C4.10229 19.1888 3.8154 19.2758 3.52198 19.2659C3.22856 19.256 2.95023 19.15 2.7426 18.9689C2.53496 18.7878 2.41333 18.5451 2.40199 18.2892C2.39066 18.0333 2.49046 17.7832 2.68146 17.5887L20.1693 2.33837C20.3878 2.14901 20.6832 2.04272 20.9912 2.04272C21.2992 2.04272 21.5947 2.14901 21.8132 2.33837L39.301 17.5887C39.4615 17.7314 39.5701 17.9122 39.6133 18.1085C39.6566 18.3047 39.6326 18.5078 39.5443 18.6922C39.4559 18.8766 39.3072 19.0342 39.1167 19.1454C38.9263 19.2565 38.7024 19.3162 38.4733 19.317Z" fill="#D90416"/>
<path d="M20.9854 5.9353L6.99512 18.1762V30.5493C6.99512 31.0886 7.24078 31.6058 7.67806 31.9871C8.11534 32.3684 8.70842 32.5827 9.32683 32.5827H17.4878V22.4158H24.483V32.5827H32.644C33.2624 32.5827 33.8555 32.3684 34.2927 31.9871C34.73 31.6058 34.9757 31.0886 34.9757 30.5493V18.105L20.9854 5.9353Z" fill="#D90416"/>
</svg>
