<svg width="36" height="40" viewBox="0 0 36 40" fill="none" xmlns="http://www.w3.org/2000/svg">
<path d="M27.7108 38.9528C27.3747 38.9517 27.0397 38.9112 26.7115 38.8319C20.4624 37.41 14.7054 34.0764 10.103 29.2145C5.59879 24.342 2.47489 18.1383 1.10924 11.3538C0.948214 10.5083 0.987737 9.6314 1.22401 8.80752C1.46028 7.98364 1.88534 7.2405 2.4583 6.6496L6.45553 2.41799C6.65969 2.20562 6.90228 2.043 7.16745 1.94073C7.43262 1.83846 7.71442 1.79884 7.99446 1.82446C8.28482 1.85778 8.56502 1.96066 8.81536 2.12586C9.06569 2.29106 9.28008 2.51458 9.44345 2.7807L14.44 10.9032C14.6274 11.2184 14.7178 11.5914 14.698 11.9673C14.6782 12.3432 14.5492 12.7022 14.3301 12.9915L11.8218 16.2889C12.8208 18.7206 14.2355 20.9185 15.9889 22.7627C17.731 24.6739 19.7901 26.1999 22.0547 27.2581L25.1625 24.5433C25.4236 24.3164 25.7412 24.1822 26.0732 24.1587C26.4052 24.1351 26.7359 24.2233 27.0212 24.4114L34.566 29.7751C34.8249 29.9451 35.0455 30.1774 35.2112 30.4545C35.3769 30.7316 35.4835 31.0464 35.5229 31.3752C35.5623 31.704 35.5335 32.0384 35.4388 32.3533C35.344 32.6681 35.1857 32.9553 34.9757 33.1934L31.0784 37.436C30.6357 37.9205 30.1103 38.304 29.5323 38.5643C28.9544 38.8246 28.3353 38.9566 27.7108 38.9528ZM7.83457 4.00072L3.83735 8.23233C3.51502 8.56267 3.27642 8.9796 3.14501 9.44212C3.0136 9.90463 2.99391 10.3968 3.08787 10.8702C4.35771 17.2365 7.27668 23.062 11.492 27.6428C15.8232 32.2168 21.2409 35.3525 27.1212 36.6886C27.5663 36.7909 28.0275 36.7702 28.4635 36.6282C28.8995 36.4863 29.2967 36.2275 29.6194 35.8752L33.5167 31.6326L26.2318 26.4558L22.8941 29.3794C22.7663 29.4906 22.6158 29.5658 22.4555 29.5984C22.2953 29.631 22.1302 29.6199 21.9747 29.5663C19.2034 28.4432 16.6919 26.6604 14.6199 24.3454C12.4767 22.1441 10.8131 19.439 9.75324 16.4318C9.7084 16.2497 9.70691 16.058 9.74891 15.8752C9.79091 15.6923 9.875 15.5244 9.99307 15.3876L12.6912 11.8375L7.83457 4.00072Z" fill="#D90416"/>
</svg>
