<svg width="35" height="35" viewBox="0 0 35 35" fill="none" xmlns="http://www.w3.org/2000/svg">
<g clip-path="url(#clip0_81_155)">
<path fill-rule="evenodd" clip-rule="evenodd" d="M17.4879 0C7.82873 0 0 7.75107 0 17.3112C0 26.8712 7.82873 34.6223 17.4879 34.6223C27.1455 34.6223 34.9757 26.8712 34.9757 17.3112C34.9757 7.75107 27.1455 0 17.4879 0ZM17.6919 27.4353C12.055 27.4353 7.49063 22.9055 7.49063 17.3112C7.49063 11.7168 12.055 7.18701 17.6919 7.18701C20.4462 7.18701 22.7488 8.1925 24.5151 9.82552L21.6383 12.679V12.6732C20.5672 11.6605 19.209 11.1412 17.6919 11.1412C14.3255 11.1412 11.5901 13.9629 11.5901 17.3054C11.5901 20.645 14.3255 23.4754 17.6919 23.4754C20.7464 23.4754 22.8246 21.7414 23.253 19.3611H17.6919V15.4127H27.2883C27.4166 16.0907 27.4851 16.7976 27.4851 17.5391C27.4851 23.3239 23.5838 27.4353 17.6919 27.4353Z" fill="#888888"/>
</g>
<defs>
<clipPath id="clip0_81_155">
<rect width="34.9757" height="34.6223" fill="white"/>
</clipPath>
</defs>
</svg>
