<svg width="36" height="35" viewBox="0 0 36 35" fill="none" xmlns="http://www.w3.org/2000/svg">
<g clip-path="url(#clip0_81_158)">
<path d="M22.7864 17.3484C22.7905 18.7258 22.2418 20.0484 21.2609 21.0254C20.2799 22.0023 18.9472 22.5535 17.5557 22.5578C16.1643 22.562 14.8283 22.019 13.8414 21.048C12.8546 20.0771 12.2979 18.7579 12.2937 17.3805C12.2928 17.0845 12.3234 16.7953 12.3768 16.5147L10.5423 16.5203L10.5632 23.4395C10.5647 23.9208 10.9593 24.3091 11.4455 24.3076L23.6782 24.2702C23.9112 24.269 24.1342 24.1764 24.2983 24.0127C24.4624 23.8489 24.5541 23.6274 24.5535 23.3968L24.5326 16.4776L22.6981 16.4832C22.7531 16.7634 22.7855 17.0524 22.7864 17.3484ZM17.5505 20.8267C18.0099 20.8252 18.4646 20.7341 18.8884 20.5587C19.3123 20.3832 19.6972 20.1269 20.021 19.8042C20.3448 19.4816 20.6012 19.0989 20.7756 18.6782C20.9501 18.2575 21.0391 17.8068 21.0376 17.3521C21.0361 16.8973 20.9442 16.4473 20.767 16.0277C20.5898 15.6081 20.3308 15.2272 20.0049 14.9067C19.679 14.5862 19.2925 14.3324 18.8675 14.1597C18.4425 13.9871 17.9873 13.899 17.5278 13.9005C16.6 13.9036 15.7114 14.2714 15.0574 14.923C14.4034 15.5746 14.0377 16.4567 14.0408 17.3752C14.0438 18.2936 14.4152 19.1733 15.0734 19.8205C15.7316 20.4678 16.6227 20.8297 17.5505 20.8267ZM21.7261 13.7163L23.8229 13.7099C23.9622 13.7095 24.0957 13.6544 24.1941 13.5568C24.2924 13.4591 24.3477 13.3269 24.3477 13.189L24.3415 11.1134C24.3411 10.9752 24.2852 10.8428 24.1862 10.7454C24.0872 10.648 23.9531 10.5935 23.8135 10.5939L21.7167 10.6003C21.5771 10.6008 21.4434 10.6561 21.345 10.7541C21.2466 10.8521 21.1915 10.9848 21.1919 11.123L21.1982 13.1986C21.2008 13.4842 21.4376 13.7172 21.7261 13.7163ZM17.4899 0.745843C13.0373 0.759442 8.77247 2.52337 5.63347 5.64958C2.49447 8.7758 0.738483 13.0082 0.751796 17.4157C0.765109 21.8233 2.54663 26.0449 5.70446 29.1519C8.86228 32.2589 13.1377 33.9967 17.5903 33.9831C19.7949 33.9764 21.9767 33.5398 24.011 32.6985C26.0453 31.8571 27.8924 30.6273 29.4466 29.0794C31.0009 27.5314 32.232 25.6956 33.0696 23.6768C33.9072 21.6579 34.3349 19.4956 34.3283 17.3132C34.3217 15.1308 33.881 12.9711 33.0312 10.9574C32.1814 8.94374 30.9393 7.11549 29.3757 5.57707C27.8121 4.03865 25.9576 2.82018 23.9183 1.99124C21.8789 1.1623 19.6945 0.739109 17.4899 0.745843ZM26.3043 24.07C26.3075 25.1277 25.4357 25.996 24.3672 25.9992L10.7652 26.0408C9.6967 26.044 8.8197 25.1812 8.81651 24.1235L8.77584 10.6589C8.77264 9.6012 9.64442 8.73297 10.7129 8.72971L24.3149 8.68816C25.3834 8.6849 26.2604 9.54778 26.2636 10.6055L26.3043 24.07Z" fill="#888888"/>
</g>
<defs>
<clipPath id="clip0_81_158">
<rect width="34.9757" height="34.6223" fill="white" transform="matrix(0.999995 -0.00305427 0.0030205 0.999995 0 0.106934)"/>
</clipPath>
</defs>
</svg>
