<svg width="35" height="35" viewBox="0 0 35 35" fill="none" xmlns="http://www.w3.org/2000/svg">
<g clip-path="url(#clip0_81_162)">
<path d="M17.4879 0C7.8305 0 0 7.75138 0 17.3112C0 26.8709 7.8305 34.6223 17.4879 34.6223C27.1452 34.6223 34.9757 26.8709 34.9757 17.3112C34.9757 7.75138 27.1452 0 17.4879 0ZM25.8922 13.0491C25.9039 13.2307 25.9039 13.42 25.9039 13.6055C25.9039 19.278 21.5397 25.8122 13.5648 25.8122C11.1056 25.8122 8.8259 25.105 6.90536 23.8878C7.25668 23.9265 7.59238 23.9419 7.95151 23.9419C9.98135 23.9419 11.8472 23.2619 13.3345 22.1104C11.4296 22.0717 9.82911 20.8352 9.28262 19.135C9.95012 19.2316 10.5513 19.2316 11.2383 19.0577C10.2574 18.8605 9.37581 18.3331 8.74321 17.5653C8.11061 16.7975 7.76604 15.8366 7.76804 14.8459V14.7918C8.34186 15.1125 9.01718 15.3095 9.72372 15.3366C9.12976 14.9448 8.64266 14.4139 8.3056 13.7911C7.96855 13.1683 7.79195 12.4727 7.79146 11.7662C7.79146 10.9663 8.00226 10.236 8.3809 9.60228C9.46961 10.929 10.8281 12.014 12.3682 12.7869C13.9083 13.5598 15.5954 14.0033 17.32 14.0885C16.7071 11.1711 18.9087 8.81014 21.5553 8.81014C22.8045 8.81014 23.9287 9.32793 24.7211 10.1626C25.7009 9.98096 26.6378 9.61774 27.4731 9.13086C27.1491 10.1239 26.4699 10.9624 25.5682 11.4918C26.4426 11.3991 27.2857 11.1595 28.0664 10.8233C27.477 11.6812 26.7392 12.4424 25.8922 13.0491Z" fill="#888888"/>
</g>
<defs>
<clipPath id="clip0_81_162">
<rect width="34.9757" height="34.6223" fill="white"/>
</clipPath>
</defs>
</svg>
